<?xml version="1.0" encoding="UTF-8"?>
<!DOCTYPE svg PUBLIC "-//W3C//DTD SVG 1.1//EN" "http://www.w3.org/Graphics/SVG/1.1/DTD/svg11.dtd">
<svg xmlns="http://www.w3.org/2000/svg" version="1.1" width="200px" height="200px" style="shape-rendering:geometricPrecision; text-rendering:geometricPrecision; image-rendering:optimizeQuality; fill-rule:evenodd; clip-rule:evenodd" xmlns:xlink="http://www.w3.org/1999/xlink">
<g><path style="opacity:0.824" fill="#de3e31" d="M 89.5,1.5 C 131.259,-0.373985 163.093,16.2927 185,51.5C 206.67,97.1463 199.503,137.646 163.5,173C 129.391,199.676 92.7244,203.676 53.5,185C 11.0077,158.566 -4.82563,120.732 6,71.5C 20.0396,31.6208 47.873,8.28745 89.5,1.5 Z"/></g>
<g><path style="opacity:1" fill="#faf6db" d="M 87.5,3.5 C 129.933,0.796995 162.1,17.4637 184,53.5C 204.631,99.0108 196.798,138.844 160.5,173C 131.239,195.098 99.239,200.098 64.5,188C 21.3488,167.549 1.51549,133.382 5,85.5C 14.4258,39.9074 41.9258,12.574 87.5,3.5 Z"/></g>
<g><path style="opacity:1" fill="#1d1d1d" d="M 134.5,169.5 C 136.977,170.12 136.977,171.12 134.5,172.5C 136.471,175.027 137.137,177.693 136.5,180.5C 135.081,178.664 133.914,176.664 133,174.5C 131.933,173.809 130.766,173.309 129.5,173C 131.233,171.811 132.9,170.644 134.5,169.5 Z"/></g>
<g><path style="opacity:1" fill="#191918" d="M 59.5,168.5 C 61.3464,168.222 62.6798,168.889 63.5,170.5C 62.3131,170.554 60.9798,170.887 59.5,171.5C 61.1713,173.51 61.838,175.843 61.5,178.5C 58.6544,178.97 56.3211,178.137 54.5,176C 56.0468,175.667 57.3801,176.167 58.5,177.5C 58.8333,177 59.1667,176.5 59.5,176C 56.912,173.441 56.912,170.941 59.5,168.5 Z"/></g>
<g><path style="opacity:1" fill="#191918" d="M 149.5,161.5 C 151.758,161.775 152.092,162.775 150.5,164.5C 152.226,166.228 153.559,168.228 154.5,170.5C 152.183,169.769 150.016,168.102 148,165.5C 147.107,166.711 146.274,166.711 145.5,165.5C 147.188,164.479 148.521,163.145 149.5,161.5 Z"/></g>
<g><path style="opacity:1" fill="#141414" d="M 139.5,166.5 C 143.242,167.881 146.576,170.048 149.5,173C 147.426,172.773 145.426,172.939 143.5,173.5C 142.833,174.833 142.167,176.167 141.5,177.5C 140.294,173.928 139.627,170.262 139.5,166.5 Z"/></g>
<g><path style="opacity:1" fill="#bfbeb7" d="M 140.5,169.5 C 142.07,168.441 143.403,168.941 144.5,171C 143.975,171.692 143.308,172.192 142.5,172.5C 141.824,171.398 141.158,170.398 140.5,169.5 Z"/></g>
<g><path style="opacity:1" fill="#181818" d="M 52.5,164.5 C 53.9778,164.238 55.3112,164.571 56.5,165.5C 55.8942,169.028 54.7275,172.361 53,175.5C 52.7811,174.062 52.2811,172.729 51.5,171.5C 49.6473,170.699 47.9806,170.365 46.5,170.5C 48.5332,168.493 50.5332,166.493 52.5,164.5 Z"/></g>
<g><path style="opacity:1" fill="#c1c0b9" d="M 52.5,166.5 C 54.8075,167.405 54.8075,168.738 52.5,170.5C 50.2064,169.375 50.2064,168.041 52.5,166.5 Z"/></g>
<g><path style="opacity:1" fill="#959490" d="M 119.5,158.5 C 110.069,165.403 99.7354,166.903 88.5,163C 86.4156,162.303 84.7489,161.136 83.5,159.5C 83.8333,159.5 84.1667,159.5 84.5,159.5C 96.3214,165.053 107.988,164.719 119.5,158.5 Z"/></g>
<g><path style="opacity:1" fill="#191919" d="M 44.5,157.5 C 45.4972,157.47 46.1639,157.97 46.5,159C 45.326,162.973 46.326,163.473 49.5,160.5C 50.3081,160.808 50.9747,161.308 51.5,162C 47.8282,162.831 44.8282,164.665 42.5,167.5C 42.1667,167.167 41.8333,166.833 41.5,166.5C 43.3706,163.766 44.3706,160.766 44.5,157.5 Z"/></g>
<g><path style="opacity:1" fill="#2b2b28" d="M 157.5,153.5 C 161.796,155.596 163.629,158.93 163,163.5C 161.915,164.293 160.748,164.96 159.5,165.5C 154.541,163.608 152.208,160.275 152.5,155.5C 154.117,158.784 156.45,161.451 159.5,163.5C 160.72,163.113 161.387,162.28 161.5,161C 160.022,158.541 158.688,156.041 157.5,153.5 Z"/></g>
<g><path style="opacity:1" fill="#5b5b5b" d="M 90.5,154.5 C 90.1077,156.179 89.6077,157.846 89,159.5C 87.9887,158.663 86.8221,158.33 85.5,158.5C 85.795,156.577 86.6283,154.91 88,153.5C 88.3418,155.619 89.1751,155.953 90.5,154.5 Z"/></g>
<g><path style="opacity:1" fill="#767574" d="M 127.5,150.5 C 125.833,154.167 123.167,156.833 119.5,158.5C 121.833,155.5 124.5,152.833 127.5,150.5 Z"/></g>
<g><path style="opacity:1" fill="#1d1d1c" d="M 37.5,148.5 C 38.6946,148.866 39.3613,149.699 39.5,151C 34.934,159.409 35.7673,160.243 42,153.5C 40.9099,156.785 38.7432,159.452 35.5,161.5C 35.1667,160.667 34.8333,159.833 34.5,159C 35.2179,156.783 35.7179,154.616 36,152.5C 34.8333,153.667 33.6667,154.833 32.5,156C 31.6683,156.688 31.0016,156.521 30.5,155.5C 32.5482,152.785 34.8816,150.452 37.5,148.5 Z"/></g>
<g><path style="opacity:1" fill="#909091" d="M 86.5,148.5 C 90.7157,151.267 95.3824,152.934 100.5,153.5C 104.597,152.809 108.597,151.809 112.5,150.5C 109.366,153.491 105.532,154.824 101,154.5C 96.0888,154.473 91.5888,153.14 87.5,150.5C 87.1667,149.833 86.8333,149.167 86.5,148.5 Z"/></g>
<g><path style="opacity:1" fill="#181817" d="M 31.5,140.5 C 32.3764,140.369 33.0431,140.702 33.5,141.5C 31.9918,143.507 30.1584,145.174 28,146.5C 27.5172,147.448 27.3505,148.448 27.5,149.5C 30.5176,149.494 33.1843,148.494 35.5,146.5C 35.0421,149.256 33.0421,150.923 29.5,151.5C 26.0254,150.857 24.8588,148.857 26,145.5C 27.8119,143.7 29.6452,142.033 31.5,140.5 Z"/></g>
<g><path style="opacity:1" fill="#787773" d="M 167.5,151.5 C 166.508,151.328 165.842,151.662 165.5,152.5C 162.843,151.74 161.843,150.24 162.5,148C 163.167,147.333 163.833,147.333 164.5,148C 165.365,149.359 166.365,150.526 167.5,151.5 Z"/></g>
<g><path style="opacity:1" fill="#7c7b7c" d="M 117.5,146.5 C 118.3,148.573 119.633,150.24 121.5,151.5C 119.883,150.962 118.216,150.629 116.5,150.5C 116.383,152.484 117.05,154.15 118.5,155.5C 117.18,157.27 115.68,157.603 114,156.5C 113.667,157.167 113.333,157.833 113,158.5C 109.311,155.336 109.811,153.002 114.5,151.5C 114.043,150.702 113.376,150.369 112.5,150.5C 113.945,148.937 115.611,147.604 117.5,146.5 Z"/></g>
<g><path style="opacity:1" fill="#151515" d="M 167.5,151.5 C 166.365,150.526 165.365,149.359 164.5,148C 163.833,147.333 163.167,147.333 162.5,148C 161.843,150.24 162.843,151.74 165.5,152.5C 167.332,153.14 167.665,154.14 166.5,155.5C 163.568,154.2 161.234,152.2 159.5,149.5C 160.845,146.256 163.012,145.256 166,146.5C 166.483,147.448 166.649,148.448 166.5,149.5C 168.288,149.215 169.955,149.548 171.5,150.5C 170.311,151.429 168.978,151.762 167.5,151.5 Z"/></g>
<g><path style="opacity:1" fill="#1c1c1c" d="M 169.5,137.5 C 171.185,138.184 172.185,139.517 172.5,141.5C 180.424,142.962 180.424,144.129 172.5,145C 174.904,145.508 175.571,146.675 174.5,148.5C 171.527,146.853 168.86,144.853 166.5,142.5C 166.833,142.167 167.167,141.833 167.5,141.5C 168.62,142.833 169.953,143.333 171.5,143C 170.139,141.416 169.472,139.582 169.5,137.5 Z"/></g>
<g><path style="opacity:1" fill="#121211" d="M 36.5,143.5 C 38.337,143.639 38.6704,144.306 37.5,145.5C 36.7025,145.043 36.3691,144.376 36.5,143.5 Z"/></g>
<g><path style="opacity:1" fill="#918f8d" d="M 131.5,122.5 C 131.833,122.5 132.167,122.5 132.5,122.5C 133.621,128.418 133.788,134.418 133,140.5C 131.914,144.346 130.081,147.68 127.5,150.5C 132.237,141.663 133.57,132.329 131.5,122.5 Z"/></g>
<g><path style="opacity:1" fill="#8b8a87" d="M 69.5,120.5 C 69.8333,120.5 70.1667,120.5 70.5,120.5C 68.1055,127.102 67.9389,133.769 70,140.5C 71.0859,144.346 72.9193,147.68 75.5,150.5C 75.5,151.167 75.5,151.833 75.5,152.5C 67.4824,143.074 65.4824,132.407 69.5,120.5 Z"/></g>
<g><path style="opacity:1" fill="#1b1a1a" d="M 34.5,140.5 C 36.337,140.639 36.6704,141.306 35.5,142.5C 34.7025,142.043 34.3691,141.376 34.5,140.5 Z"/></g>
<g><path style="opacity:1" fill="#1d1d1d" d="M 25.5,130.5 C 30.095,135.356 29.2616,139.023 23,141.5C 20.3155,140.314 18.4821,138.314 17.5,135.5C 20.2308,133.808 22.8975,132.142 25.5,130.5 Z"/></g>
<g><path style="opacity:1" fill="#ebeae0" d="M 24.5,133.5 C 26.3442,134.204 26.8442,135.537 26,137.5C 23.6828,140.182 21.5161,140.015 19.5,137C 21.2331,135.811 22.8998,134.644 24.5,133.5 Z"/></g>
<g><path style="opacity:1" fill="#1a1a1a" d="M 182.5,128.5 C 183.376,128.369 184.043,128.702 184.5,129.5C 183.667,131.167 182.833,132.833 182,134.5C 170.572,130.135 170.739,129.135 182.5,131.5C 182.5,130.5 182.5,129.5 182.5,128.5 Z"/></g>
<g><path style="opacity:1" fill="#171717" d="M 175.5,121.5 C 178.945,122.093 182.279,123.093 185.5,124.5C 184.277,125.614 182.944,125.781 181.5,125C 178.981,124.414 176.981,123.247 175.5,121.5 Z"/></g>
<g><path style="opacity:1" fill="#131313" d="M 172.5,120.5 C 174.337,120.639 174.67,121.306 173.5,122.5C 172.702,122.043 172.369,121.376 172.5,120.5 Z"/></g>
<g><path style="opacity:1" fill="#252525" d="M 128.5,121.5 C 126.83,121.751 125.33,122.418 124,123.5C 123.601,123.272 123.435,122.938 123.5,122.5C 124.765,121.521 126.099,120.521 127.5,119.5C 128.298,119.957 128.631,120.624 128.5,121.5 Z"/></g>
<g><path style="opacity:1" fill="#232322" d="M 20.5,116.5 C 22.9758,117.815 22.6424,118.982 19.5,120C 25.9797,122.698 25.6463,123.698 18.5,123C 17.3333,124.167 16.1667,125.333 15,126.5C 14.3698,124.097 15.2031,122.263 17.5,121C 16.1011,120.405 14.7678,120.572 13.5,121.5C 12.479,120.998 12.3123,120.332 13,119.5C 15.5667,118.413 18.0667,117.413 20.5,116.5 Z"/></g>
<g><path style="opacity:1" fill="#f3f3f3" d="M 122.5,120.5 C 122.328,121.492 122.662,122.158 123.5,122.5C 123.435,122.938 123.601,123.272 124,123.5C 125.33,122.418 126.83,121.751 128.5,121.5C 128.435,121.938 128.601,122.272 129,122.5C 129.278,121.584 129.778,120.918 130.5,120.5C 131.338,120.842 131.672,121.508 131.5,122.5C 133.57,132.329 132.237,141.663 127.5,150.5C 124.5,152.833 121.833,155.5 119.5,158.5C 107.988,164.719 96.3214,165.053 84.5,159.5C 84.5,158.833 84.8333,158.5 85.5,158.5C 86.8221,158.33 87.9887,158.663 89,159.5C 89.6077,157.846 90.1077,156.179 90.5,154.5C 89.5637,153.026 88.2303,152.026 86.5,151.5C 86.5,150.833 86.8333,150.5 87.5,150.5C 91.5888,153.14 96.0888,154.473 101,154.5C 105.532,154.824 109.366,153.491 112.5,150.5C 113.376,150.369 114.043,150.702 114.5,151.5C 109.811,153.002 109.311,155.336 113,158.5C 113.333,157.833 113.667,157.167 114,156.5C 115.68,157.603 117.18,157.27 118.5,155.5C 117.05,154.15 116.383,152.484 116.5,150.5C 118.216,150.629 119.883,150.962 121.5,151.5C 121.435,151.938 121.601,152.272 122,152.5C 122.645,151.354 123.478,150.354 124.5,149.5C 123.282,148.197 123.615,147.197 125.5,146.5C 123.713,145.684 122.046,144.684 120.5,143.5C 124.698,135.001 124.364,126.668 119.5,118.5C 119.667,118.167 119.833,117.833 120,117.5C 120.852,118.571 121.685,119.571 122.5,120.5 Z"/></g>
<g><path style="opacity:1" fill="#777677" d="M 108.5,158.5 C 108.5,159.5 108.5,160.5 108.5,161.5C 106.5,161.5 104.5,161.5 102.5,161.5C 101.273,155.714 101.94,155.381 104.5,160.5C 105.86,159.82 107.193,159.153 108.5,158.5 Z"/></g>
<g><path style="opacity:1" fill="#757576" d="M 91.5,156.5 C 92.8123,156.458 94.1457,156.458 95.5,156.5C 96.2811,157.729 96.7811,159.062 97,160.5C 98.9009,156.415 100.401,156.582 101.5,161C 100.551,161.617 99.7175,161.451 99,160.5C 97.1724,162.807 95.5057,162.474 94,159.5C 93.6667,159.833 93.3333,160.167 93,160.5C 92.79,158.942 92.29,157.609 91.5,156.5 Z"/></g>
<g><path style="opacity:1" fill="#3a3a3a" d="M 108.5,158.5 C 107.438,157.425 107.438,156.425 108.5,155.5C 110.139,156.916 110.973,158.583 111,160.5C 110.292,159.619 109.458,158.953 108.5,158.5 Z"/></g>
<g><path style="opacity:1" fill="#6b6b6b" d="M 125.5,131.5 C 131.261,131.709 131.594,132.542 126.5,134C 130.781,136.715 130.448,138.549 125.5,139.5C 126.5,140.167 127.5,140.833 128.5,141.5C 126.65,142.242 125.984,143.242 126.5,144.5C 125.069,144.023 123.736,143.357 122.5,142.5C 124.385,141.803 124.718,140.803 123.5,139.5C 124.295,136.856 124.962,134.189 125.5,131.5 Z"/></g>
<g><path style="opacity:1" fill="#515151" d="M 126.5,125.5 C 127.5,125.5 128.5,125.5 129.5,125.5C 128.754,129.31 127.754,129.31 126.5,125.5 Z"/></g>
<g><path style="opacity:1" fill="#aeaeae" d="M 87.5,110.5 C 87.8333,110.5 88.1667,110.5 88.5,110.5C 88.5,111.833 89.1667,112.5 90.5,112.5C 78.7035,121.358 76.3702,132.358 83.5,145.5C 81.4383,143.59 79.9383,141.257 79,138.5C 78.2472,133.625 78.4138,128.792 79.5,124C 78.9444,122.989 78.2778,122.156 77.5,121.5C 78.2389,121.631 78.9056,121.464 79.5,121C 77.8068,120.153 76.1401,119.32 74.5,118.5C 75.0577,117.21 76.0577,116.377 77.5,116C 75.8333,112.667 76.8333,111.333 80.5,112C 82.0488,113.214 83.2155,114.714 84,116.5C 84.7172,115.956 85.2172,115.289 85.5,114.5C 85.5858,113.504 85.2524,112.671 84.5,112C 85.4491,111.383 86.2825,111.549 87,112.5C 87.4643,111.906 87.631,111.239 87.5,110.5 Z"/></g>
<g><path style="opacity:1" fill="#171716" d="M 177.5,112.5 C 178.376,112.369 179.043,112.702 179.5,113.5C 178.794,117.279 179.794,117.446 182.5,114C 186.702,113.706 188.036,115.539 186.5,119.5C 185.833,120.833 185.167,120.833 184.5,119.5C 185.691,114.967 184.691,114.467 181.5,118C 176.711,118.845 175.377,117.011 177.5,112.5 Z"/></g>
<g><path style="opacity:1" fill="#a6a6a6" d="M 117.5,112.5 C 118.687,113.534 119.52,114.867 120,116.5C 120.278,115.584 120.778,114.918 121.5,114.5C 121.369,115.376 121.702,116.043 122.5,116.5C 123.451,115.674 124.451,115.508 125.5,116C 125.085,118.026 124.085,119.526 122.5,120.5C 121.685,119.571 120.852,118.571 120,117.5C 119.833,117.833 119.667,118.167 119.5,118.5C 124.364,126.668 124.698,135.001 120.5,143.5C 122.046,144.684 123.713,145.684 125.5,146.5C 123.615,147.197 123.282,148.197 124.5,149.5C 123.478,150.354 122.645,151.354 122,152.5C 121.601,152.272 121.435,151.938 121.5,151.5C 119.633,150.24 118.3,148.573 117.5,146.5C 125.386,133.385 123.386,122.052 111.5,112.5C 114.08,111.385 115.746,109.385 116.5,106.5C 117.354,107.522 118.354,108.355 119.5,109C 118.167,110 116.833,111 115.5,112C 116.094,112.464 116.761,112.631 117.5,112.5 Z"/></g>
<g><path style="opacity:1" fill="#e2e3e3" d="M 92.5,99.5 C 95.5014,100.334 98.168,101.667 100.5,103.5C 98.7897,107.568 97.6231,107.235 97,102.5C 96.5065,104.134 96.3398,105.801 96.5,107.5C 97.5,107.5 98.5,107.5 99.5,107.5C 100.5,108.833 101.5,108.833 102.5,107.5C 103.423,108.303 104.423,108.47 105.5,108C 104.651,105.382 104.651,103.049 105.5,101C 106.094,100.536 106.761,100.369 107.5,100.5C 118.922,102.926 126.588,109.593 130.5,120.5C 129.778,120.918 129.278,121.584 129,122.5C 128.601,122.272 128.435,121.938 128.5,121.5C 128.631,120.624 128.298,119.957 127.5,119.5C 126.099,120.521 124.765,121.521 123.5,122.5C 122.662,122.158 122.328,121.492 122.5,120.5C 124.085,119.526 125.085,118.026 125.5,116C 124.451,115.508 123.451,115.674 122.5,116.5C 121.702,116.043 121.369,115.376 121.5,114.5C 122.562,113.425 122.562,112.425 121.5,111.5C 120.264,112.246 118.93,112.579 117.5,112.5C 116.761,112.631 116.094,112.464 115.5,112C 116.833,111 118.167,110 119.5,109C 118.354,108.355 117.354,107.522 116.5,106.5C 115.746,109.385 114.08,111.385 111.5,112.5C 108.535,110.058 105.035,109.058 101,109.5C 98.8333,109.667 96.6667,109.833 94.5,110C 92.6803,110.2 91.347,111.034 90.5,112.5C 89.1667,112.5 88.5,111.833 88.5,110.5C 88.1667,110.5 87.8333,110.5 87.5,110.5C 86.2591,108.069 85.0924,108.069 84,110.5C 83.2825,109.549 82.4491,109.383 81.5,110C 82.7332,111.667 84.0665,113.167 85.5,114.5C 85.2172,115.289 84.7172,115.956 84,116.5C 83.2155,114.714 82.0488,113.214 80.5,112C 76.8333,111.333 75.8333,112.667 77.5,116C 76.0577,116.377 75.0577,117.21 74.5,118.5C 74.8102,120.144 75.8102,121.144 77.5,121.5C 78.2778,122.156 78.9444,122.989 79.5,124C 78.4138,128.792 78.2472,133.625 79,138.5C 79.9383,141.257 81.4383,143.59 83.5,145.5C 84.8333,146.167 85.8333,147.167 86.5,148.5C 86.8333,149.167 87.1667,149.833 87.5,150.5C 86.8333,150.5 86.5,150.833 86.5,151.5C 88.2303,152.026 89.5637,153.026 90.5,154.5C 89.1751,155.953 88.3418,155.619 88,153.5C 86.6283,154.91 85.795,156.577 85.5,158.5C 84.8333,158.5 84.5,158.833 84.5,159.5C 84.1667,159.5 83.8333,159.5 83.5,159.5C 81.4048,158.588 79.4048,157.421 77.5,156C 76.1772,155.184 75.5106,154.017 75.5,152.5C 75.5,151.833 75.5,151.167 75.5,150.5C 72.9193,147.68 71.0859,144.346 70,140.5C 67.9389,133.769 68.1055,127.102 70.5,120.5C 74.597,110.069 81.9303,103.069 92.5,99.5 Z"/></g>
<g><path style="opacity:1" fill="#505050" d="M 86.5,151.5 C 86.1744,154.001 84.8411,155.168 82.5,155C 84.7843,153.637 84.951,152.137 83,150.5C 82.1627,152.007 80.9961,152.507 79.5,152C 80.6667,150.833 81.8333,149.667 83,148.5C 84.0391,149.71 85.2058,150.71 86.5,151.5 Z"/></g>
<g><path style="opacity:1" fill="#605f60" d="M 75.5,150.5 C 75.6427,148.738 75.3094,147.071 74.5,145.5C 75.2752,143.525 76.6086,142.691 78.5,143C 76.4848,144.555 76.1515,146.389 77.5,148.5C 78.2508,147.624 78.7508,146.624 79,145.5C 80.2381,148.926 79.0714,150.592 75.5,150.5 Z"/></g>
<g><path style="opacity:1" fill="#302f30" d="M 73.5,136.5 C 76.7973,136.329 77.1306,136.995 74.5,138.5C 75.0253,139.192 75.6919,139.692 76.5,140C 76,140.167 75.5,140.333 75,140.5C 73.8288,139.66 72.6621,138.827 71.5,138C 72.4158,137.722 73.0825,137.222 73.5,136.5 Z"/></g>
<g><path style="opacity:1" fill="#1d1c1c" d="M 73.5,132.5 C 74.2389,132.369 74.9056,132.536 75.5,133C 74.5342,134.678 73.2009,135.345 71.5,135C 72.3805,134.292 73.0472,133.458 73.5,132.5 Z"/></g>
<g><path style="opacity:1" fill="#525252" d="M 72.5,125.5 C 75.9571,125.667 76.2904,126.667 73.5,128.5C 72.6143,127.675 72.281,126.675 72.5,125.5 Z"/></g>
<g><path style="opacity:1" fill="#222121" d="M 74.5,118.5 C 76.1401,119.32 77.8068,120.153 79.5,121C 78.9056,121.464 78.2389,121.631 77.5,121.5C 75.8102,121.144 74.8102,120.144 74.5,118.5 Z"/></g>
<g><path style="opacity:1" fill="#3e3d3e" d="M 121.5,114.5 C 120.778,114.918 120.278,115.584 120,116.5C 119.52,114.867 118.687,113.534 117.5,112.5C 118.93,112.579 120.264,112.246 121.5,111.5C 122.562,112.425 122.562,113.425 121.5,114.5 Z"/></g>
<g><path style="opacity:1" fill="#ea2327" d="M 92.5,99.5 C 81.9303,103.069 74.597,110.069 70.5,120.5C 70.1667,120.5 69.8333,120.5 69.5,120.5C 65.7941,120.499 63.4608,122.165 62.5,125.5C 64.3547,125.272 65.1881,125.939 65,127.5C 60.2488,130.459 55.4155,133.293 50.5,136C 49.2056,139.679 47.5389,143.179 45.5,146.5C 45.5071,142.337 45.3404,138.004 45,133.5C 43.3943,130.128 42.2276,126.628 41.5,123C 41.6484,121.293 41.9818,119.626 42.5,118C 40.2234,114.719 37.5567,111.719 34.5,109C 35.3091,107.216 35.9757,105.383 36.5,103.5C 34.7087,100.752 34.2087,97.7525 35,94.5C 38.1508,91.593 41.4841,88.9264 45,86.5C 47.2013,83.8793 49.0347,81.0459 50.5,78C 54.3445,76.7682 57.3445,74.6016 59.5,71.5C 60.8289,66.9553 63.3289,62.9553 67,59.5C 66.0789,65.8766 66.5789,72.2099 68.5,78.5C 62.7393,78.419 59.5726,81.419 59,87.5C 65.2007,80.4557 70.2007,81.4557 74,90.5C 75.7154,97.9293 72.8821,102.096 65.5,103C 70.387,105.595 74.2203,104.428 77,99.5C 77.1858,97.0995 77.6858,94.7662 78.5,92.5C 82.6421,95.9044 87.3088,98.2377 92.5,99.5 Z"/></g>
<g><path style="opacity:1" fill="#fcf7f7" d="M 111.5,112.5 C 123.386,122.052 125.386,133.385 117.5,146.5C 115.611,147.604 113.945,148.937 112.5,150.5C 108.597,151.809 104.597,152.809 100.5,153.5C 95.3824,152.934 90.7157,151.267 86.5,148.5C 85.8333,147.167 84.8333,146.167 83.5,145.5C 76.3702,132.358 78.7035,121.358 90.5,112.5C 97.5008,109.834 104.501,109.834 111.5,112.5 Z"/></g>
<g><path style="opacity:1" fill="#ed2525" d="M 93.5,128.5 C 89.5688,136.638 92.0688,141.638 101,143.5C 110.688,141.132 112.854,135.799 107.5,127.5C 110.145,128.278 112.312,130.278 114,133.5C 116.074,144.334 111.574,150.334 100.5,151.5C 90.6502,149.479 86.4835,143.479 88,133.5C 89.36,130.598 91.1934,128.932 93.5,128.5 Z"/></g>
<g><path style="opacity:1" fill="#b7b7b7" d="M 107.5,127.5 C 112.854,135.799 110.688,141.132 101,143.5C 92.0688,141.638 89.5688,136.638 93.5,128.5C 97.9139,124.936 102.581,124.603 107.5,127.5 Z"/></g>
<g><path style="opacity:1" fill="#eb2320" d="M 97.5,114.5 C 98.4822,115.141 99.4822,115.807 100.5,116.5C 102.838,114.989 103.504,115.323 102.5,117.5C 105.433,119.738 105.099,120.738 101.5,120.5C 100.833,124.5 100.167,124.5 99.5,120.5C 95.9007,120.738 95.5673,119.738 98.5,117.5C 97.8728,116.583 97.5394,115.583 97.5,114.5 Z"/></g>
<g><path style="opacity:1" fill="#4b4a4b" d="M 87.5,110.5 C 87.631,111.239 87.4643,111.906 87,112.5C 86.2825,111.549 85.4491,111.383 84.5,112C 85.2524,112.671 85.5858,113.504 85.5,114.5C 84.0665,113.167 82.7332,111.667 81.5,110C 82.4491,109.383 83.2825,109.549 84,110.5C 85.0924,108.069 86.2591,108.069 87.5,110.5 Z"/></g>
<g><path style="opacity:1" fill="#8f8f90" d="M 111.5,112.5 C 104.501,109.834 97.5008,109.834 90.5,112.5C 91.347,111.034 92.6803,110.2 94.5,110C 96.6667,109.833 98.8333,109.667 101,109.5C 105.035,109.058 108.535,110.058 111.5,112.5 Z"/></g>
<g><path style="opacity:1" fill="#515051" d="M 109.5,103.5 C 111.782,105.067 112.449,107.067 111.5,109.5C 110.232,107.696 109.565,105.696 109.5,103.5 Z"/></g>
<g><path style="opacity:1" fill="#242423" d="M 13.5,107.5 C 16.1667,107.5 18.8333,107.5 21.5,107.5C 21.7564,109.792 21.4231,111.959 20.5,114C 19.1011,114.595 17.7678,114.428 16.5,113.5C 11.2485,116.253 10.5818,115.586 14.5,111.5C 13.1667,110.833 11.8333,110.167 10.5,109.5C 11.6016,108.824 12.6016,108.158 13.5,107.5 Z"/></g>
<g><path style="opacity:1" fill="#e0e0d8" d="M 16.5,109.5 C 17.5,109.5 18.5,109.5 19.5,109.5C 18.7542,113.31 17.7542,113.31 16.5,109.5 Z"/></g>
<g><path style="opacity:1" fill="#4a4a4b" d="M 100.5,103.5 C 101.853,105.128 101.519,106.462 99.5,107.5C 98.5,107.5 97.5,107.5 96.5,107.5C 96.3398,105.801 96.5065,104.134 97,102.5C 97.6231,107.235 98.7897,107.568 100.5,103.5 Z"/></g>
<g><path style="opacity:1" fill="#3f3e3f" d="M 88.5,110.5 C 86.85,104.924 88.5167,104.257 93.5,108.5C 91.5973,108.065 89.9307,108.732 88.5,110.5 Z"/></g>
<g><path style="opacity:1" fill="#222221" d="M 178.5,104.5 C 179.434,105.568 179.768,106.901 179.5,108.5C 180.5,108.5 181.5,108.5 182.5,108.5C 183.045,104.828 183.378,105.162 183.5,109.5C 184.5,109.5 185.5,109.5 186.5,109.5C 186.238,108.022 186.571,106.689 187.5,105.5C 188.466,107.396 188.799,109.396 188.5,111.5C 184.802,111.448 181.135,111.114 177.5,110.5C 177.517,108.435 177.85,106.435 178.5,104.5 Z"/></g>
<g><path style="opacity:1" fill="#e12637" d="M 131.5,79.5 C 141.157,90.7932 150.823,102.126 160.5,113.5C 160.701,121.47 160.034,129.47 158.5,137.5C 148.09,126.76 138.424,115.427 129.5,103.5C 126.041,100.585 123.041,97.2518 120.5,93.5C 124.96,89.3829 128.627,84.7162 131.5,79.5 Z"/></g>
<g><path style="opacity:1" fill="#fcdddc" d="M 141.5,101.5 C 142.922,101.709 144.255,102.209 145.5,103C 145.604,105.237 144.438,107.071 142,108.5C 137.601,106.32 137.434,103.987 141.5,101.5 Z"/></g>
<g><path style="opacity:1" fill="#1e1e1d" d="M 184.5,94.5 C 185.822,94.33 186.989,94.6634 188,95.5C 188.808,97.5787 188.641,99.5787 187.5,101.5C 187.64,99.7445 187.14,98.0778 186,96.5C 184.954,98.0905 183.787,99.5905 182.5,101C 181.5,101.667 180.5,101.667 179.5,101C 178.24,99.1862 178.24,97.3529 179.5,95.5C 179.205,96.8255 179.705,98.1588 181,99.5C 182.176,97.8043 183.343,96.1376 184.5,94.5 Z"/></g>
<g><path style="opacity:1" fill="#8f8f8f" d="M 89.5,88.5 C 94.1667,92.1667 98.8333,95.8333 103.5,99.5C 104.833,99.5 106.167,99.5 107.5,99.5C 107.5,99.8333 107.5,100.167 107.5,100.5C 106.761,100.369 106.094,100.536 105.5,101C 104.651,103.049 104.651,105.382 105.5,108C 104.423,108.47 103.423,108.303 102.5,107.5C 102.318,105.409 102.652,103.409 103.5,101.5C 98.1921,97.8588 93.5254,93.5255 89.5,88.5 Z"/></g>
<g><path style="opacity:1" fill="#25ab62" d="M 120.5,93.5 C 123.041,97.2518 126.041,100.585 129.5,103.5C 138.424,115.427 148.09,126.76 158.5,137.5C 158.664,140.187 158.497,142.854 158,145.5C 156.642,142.619 155.142,139.786 153.5,137C 148.997,134.61 144.331,132.61 139.5,131C 137.561,130.092 136.561,128.592 136.5,126.5C 138.355,126.728 139.188,126.061 139,124.5C 137.103,122.984 134.936,122.317 132.5,122.5C 132.167,122.5 131.833,122.5 131.5,122.5C 131.672,121.508 131.338,120.842 130.5,120.5C 126.588,109.593 118.922,102.926 107.5,100.5C 107.5,100.167 107.5,99.8333 107.5,99.5C 107.5,98.8333 107.833,98.5 108.5,98.5C 109.167,98.5 109.833,98.5 110.5,98.5C 112.167,97.8333 113.833,97.1667 115.5,96.5C 117.001,95.2485 118.668,94.2485 120.5,93.5 Z"/></g>
<g><path style="opacity:1" fill="#fedfdb" d="M 59.5,94.5 C 60.8311,95.9879 62.1645,96.6545 63.5,96.5C 62.2889,97.7202 62.2889,98.8869 63.5,100C 62.5838,100.374 61.7504,100.874 61,101.5C 60.5348,100.069 59.7014,98.9025 58.5,98C 59.3366,96.9887 59.67,95.8221 59.5,94.5 Z"/></g>
<g><path style="opacity:1" fill="#1b1b1a" d="M 11.5,96.5 C 14.1873,96.3359 16.854,96.5026 19.5,97C 16.6353,97.1829 13.9686,97.6829 11.5,98.5C 10.2089,99.5417 10.2089,100.708 11.5,102C 14.2263,102.182 16.8929,102.682 19.5,103.5C 16.5541,104.655 13.5541,104.821 10.5,104C 7.57432,100.972 7.90766,98.4723 11.5,96.5 Z"/></g>
<g><path style="opacity:1" fill="#949387" d="M 20.5,93.5 C 21.1667,95.5 21.8333,97.5 22.5,99.5C 18.8815,98.7564 15.2148,98.423 11.5,98.5C 13.9686,97.6829 16.6353,97.1829 19.5,97C 16.854,96.5026 14.1873,96.3359 11.5,96.5C 13.6074,95.5318 15.9407,95.1984 18.5,95.5C 19.1667,94.8333 19.8333,94.1667 20.5,93.5 Z"/></g>
<g><path style="opacity:1" fill="#fce4e4" d="M 129.5,103.5 C 128.997,95.5049 132.664,91.6716 140.5,92C 142.638,93.4216 143.805,95.255 144,97.5C 140.974,94.1355 137.474,93.6355 133.5,96C 130.575,99.696 130.908,103.029 134.5,106C 132.565,105.942 130.898,105.109 129.5,103.5 Z"/></g>
<g><path style="opacity:1" fill="#383738" d="M 115.5,96.5 C 113.833,97.1667 112.167,97.8333 110.5,98.5C 109.123,94.0798 106.956,90.0798 104,86.5C 103.383,83.8236 104.216,83.157 106.5,84.5C 107.192,83.9747 107.692,83.3081 108,82.5C 112.373,86.251 114.873,90.9177 115.5,96.5 Z"/></g>
<g><path style="opacity:1" fill="#2c2c2a" d="M 176.5,90.5 C 180.884,90.1744 185.217,90.5078 189.5,91.5C 185.287,92.1945 181.121,92.8612 177,93.5C 176.517,92.552 176.351,91.552 176.5,90.5 Z"/></g>
<g><path style="opacity:1" fill="#1e1d1d" d="M 20.5,93.5 C 19.8333,94.1667 19.1667,94.8333 18.5,95.5C 18.5,94.5 18.5,93.5 18.5,92.5C 15.6786,92.4613 13.0119,91.7946 10.5,90.5C 12.8275,89.276 15.1608,89.276 17.5,90.5C 18.7989,89.91 19.6322,88.91 20,87.5C 20.4955,89.4727 20.6621,91.4727 20.5,93.5 Z"/></g>
<g><path style="opacity:1" fill="#161616" d="M 108.5,98.5 C 107.833,98.5 107.5,98.8333 107.5,99.5C 106.167,99.5 104.833,99.5 103.5,99.5C 101.589,97.0829 99.4222,94.7496 97,92.5C 96.8687,88.9443 95.702,85.9443 93.5,83.5C 91.9397,83.4809 90.4397,83.1476 89,82.5C 87.5353,80.534 85.7019,79.2007 83.5,78.5C 85.4025,76.3721 87.0692,74.0387 88.5,71.5C 90.2877,73.5765 91.9544,75.7432 93.5,78C 96.6612,79.4131 99.6612,81.0797 102.5,83C 101.892,83.8699 101.059,84.3699 100,84.5C 98.8382,83.8132 97.6716,83.6466 96.5,84C 100.735,88.726 104.735,93.5594 108.5,98.5 Z"/></g>
<g><path style="opacity:1" fill="#434343" d="M 83.5,78.5 C 85.7019,79.2007 87.5353,80.534 89,82.5C 90.4397,83.1476 91.9397,83.4809 93.5,83.5C 95.702,85.9443 96.8687,88.9443 97,92.5C 99.4222,94.7496 101.589,97.0829 103.5,99.5C 98.8333,95.8333 94.1667,92.1667 89.5,88.5C 87.1971,86.033 84.6971,83.6997 82,81.5C 81.4153,80.0024 81.9153,79.0024 83.5,78.5 Z"/></g>
<g><path style="opacity:1" fill="#2897c3" d="M 133.5,66.5 C 134.568,69.0752 136.235,71.2419 138.5,73C 141.952,74.2257 145.285,75.7257 148.5,77.5C 151.029,83.4111 155.363,87.2445 161.5,89C 165.585,92.1472 166.585,96.1472 164.5,101C 164.703,103.406 165.703,105.406 167.5,107C 165.297,109.372 162.963,111.539 160.5,113.5C 150.823,102.126 141.157,90.7932 131.5,79.5C 131.884,74.9898 132.551,70.6565 133.5,66.5 Z"/></g>
<g><path style="opacity:1" fill="#1e1f1f" d="M 172.5,61.5 C 174.357,64.0176 176.19,64.0176 178,61.5C 178.492,62.549 178.326,63.549 177.5,64.5C 181.755,66.8651 181.421,67.8651 176.5,67.5C 175.833,71.5 175.167,71.5 174.5,67.5C 169.579,67.8651 169.245,66.8651 173.5,64.5C 172.873,63.5832 172.539,62.5832 172.5,61.5 Z"/></g>
<g><path style="opacity:1" fill="#252525" d="M 26.5,60.5 C 27.6527,61.3132 27.6527,62.3132 26.5,63.5C 30.7547,65.8651 30.4214,66.8651 25.5,66.5C 24.8333,70.5 24.1667,70.5 23.5,66.5C 22.1266,66.6567 20.7932,66.49 19.5,66C 21.3203,65.0206 22.487,63.5206 23,61.5C 24.5788,62.7996 25.7455,62.4663 26.5,60.5 Z"/></g>
<g><path style="opacity:1" fill="#fbf9f8" d="M 133.5,66.5 C 132.551,70.6565 131.884,74.9898 131.5,79.5C 128.627,84.7162 124.96,89.3829 120.5,93.5C 118.668,94.2485 117.001,95.2485 115.5,96.5C 114.873,90.9177 112.373,86.251 108,82.5C 107.692,83.3081 107.192,83.9747 106.5,84.5C 104.216,83.157 103.383,83.8236 104,86.5C 106.956,90.0798 109.123,94.0798 110.5,98.5C 109.833,98.5 109.167,98.5 108.5,98.5C 104.735,93.5594 100.735,88.726 96.5,84C 97.6716,83.6466 98.8382,83.8132 100,84.5C 101.059,84.3699 101.892,83.8699 102.5,83C 99.6612,81.0797 96.6612,79.4131 93.5,78C 91.9544,75.7432 90.2877,73.5765 88.5,71.5C 87.0692,74.0387 85.4025,76.3721 83.5,78.5C 81.9153,79.0024 81.4153,80.0024 82,81.5C 84.6971,83.6997 87.1971,86.033 89.5,88.5C 93.5254,93.5255 98.1921,97.8588 103.5,101.5C 102.652,103.409 102.318,105.409 102.5,107.5C 101.5,108.833 100.5,108.833 99.5,107.5C 101.519,106.462 101.853,105.128 100.5,103.5C 98.168,101.667 95.5014,100.334 92.5,99.5C 87.3088,98.2377 82.6421,95.9044 78.5,92.5C 77.6858,94.7662 77.1858,97.0995 77,99.5C 74.2203,104.428 70.387,105.595 65.5,103C 72.8821,102.096 75.7154,97.9293 74,90.5C 70.2007,81.4557 65.2007,80.4557 59,87.5C 59.5726,81.419 62.7393,78.419 68.5,78.5C 66.5789,72.2099 66.0789,65.8766 67,59.5C 63.3289,62.9553 60.8289,66.9553 59.5,71.5C 60.0287,65.4439 62.8621,60.7772 68,57.5C 75.2687,39.7792 88.4354,32.2792 107.5,35C 123.285,39.6188 131.952,50.1188 133.5,66.5 Z"/></g>
<g><path style="opacity:1" fill="#6a6b6b" d="M 96.5,63.5 C 98.2838,63.8925 99.9505,64.5592 101.5,65.5C 101.088,67.9726 102.088,69.3059 104.5,69.5C 104.821,71.0481 105.821,71.7148 107.5,71.5C 109.355,71.272 110.188,71.9387 110,73.5C 109.586,73.0426 109.086,72.7093 108.5,72.5C 106.063,74.2703 104.063,76.2703 102.5,78.5C 98.5779,75.4957 97.5779,71.6624 99.5,67C 98.4558,65.8261 97.4558,64.6594 96.5,63.5 Z"/></g>
<g><path style="opacity:1" fill="#404140" d="M 96.5,63.5 C 97.4558,64.6594 98.4558,65.8261 99.5,67C 97.5779,71.6624 98.5779,75.4957 102.5,78.5C 97.0381,77.2585 92.7048,74.2585 89.5,69.5C 89.3285,67.5082 89.9951,65.8415 91.5,64.5C 91.2907,63.914 90.9574,63.414 90.5,63C 92.5976,62.3224 94.5976,62.4891 96.5,63.5 Z"/></g>
<g><path style="opacity:1" fill="#cccccc" d="M 103.5,46.5 C 104.209,47.404 105.209,47.7373 106.5,47.5C 108.455,48.4474 108.789,49.7807 107.5,51.5C 109.043,53.2532 110.043,55.2532 110.5,57.5C 108.656,58.2039 108.156,59.5372 109,61.5C 109.903,60.2986 111.069,59.4652 112.5,59C 111.944,58.6174 111.611,58.1174 111.5,57.5C 112.497,57.4701 113.164,57.9701 113.5,59C 111.429,60.95 111.095,63.1167 112.5,65.5C 110.38,67.2719 108.713,69.2719 107.5,71.5C 105.821,71.7148 104.821,71.0481 104.5,69.5C 105.765,68.4855 106.431,66.9855 106.5,65C 107.03,60.1875 105.03,57.3542 100.5,56.5C 99.0474,55.1751 99.3808,54.3418 101.5,54C 100.351,52.3963 100.351,50.7297 101.5,49C 101.095,48.0546 100.428,47.3879 99.5,47C 100.793,46.51 102.127,46.3433 103.5,46.5 Z"/></g>
<g><path style="opacity:1" fill="#2e2e2e" d="M 100.5,56.5 C 105.03,57.3542 107.03,60.1875 106.5,65C 106.431,66.9855 105.765,68.4855 104.5,69.5C 102.088,69.3059 101.088,67.9726 101.5,65.5C 102.338,65.1583 102.672,64.4916 102.5,63.5C 103.886,61.2431 103.219,59.5764 100.5,58.5C 97.6121,61.4621 96.2787,60.7954 96.5,56.5C 97.8333,56.5 99.1667,56.5 100.5,56.5 Z"/></g>
<g><path style="opacity:1" fill="#e2e3e3" d="M 102.5,63.5 C 102.672,64.4916 102.338,65.1583 101.5,65.5C 99.9505,64.5592 98.2838,63.8925 96.5,63.5C 97.5739,61.7845 99.2406,60.7845 101.5,60.5C 102.386,61.325 102.719,62.325 102.5,63.5 Z"/></g>
<g><path style="opacity:1" fill="#232323" d="M 110.5,57.5 C 110.833,57.5 111.167,57.5 111.5,57.5C 111.611,58.1174 111.944,58.6174 112.5,59C 111.069,59.4652 109.903,60.2986 109,61.5C 108.156,59.5372 108.656,58.2039 110.5,57.5 Z"/></g>
<g><path style="opacity:1" fill="#7a7a7b" d="M 103.5,46.5 C 102.127,46.3433 100.793,46.51 99.5,47C 100.428,47.3879 101.095,48.0546 101.5,49C 100.351,50.7297 100.351,52.3963 101.5,54C 99.3808,54.3418 99.0474,55.1751 100.5,56.5C 99.1667,56.5 97.8333,56.5 96.5,56.5C 96.2787,60.7954 97.6121,61.4621 100.5,58.5C 103.219,59.5764 103.886,61.2431 102.5,63.5C 102.719,62.325 102.386,61.325 101.5,60.5C 99.2406,60.7845 97.5739,61.7845 96.5,63.5C 94.5976,62.4891 92.5976,62.3224 90.5,63C 90.9574,63.414 91.2907,63.914 91.5,64.5C 89.9951,65.8415 89.3285,67.5082 89.5,69.5C 89.2559,65.7338 87.9226,62.0671 85.5,58.5C 86.6511,56.6746 87.3178,54.6746 87.5,52.5C 88.0159,54.7182 89.0159,56.7182 90.5,58.5C 92.9422,54.2174 95.6089,50.0507 98.5,46C 100.387,45.2204 102.054,45.3871 103.5,46.5 Z"/></g>
<g><path style="opacity:1" fill="#464747" d="M 106.5,47.5 C 105.209,47.7373 104.209,47.404 103.5,46.5C 102.054,45.3871 100.387,45.2204 98.5,46C 95.6089,50.0507 92.9422,54.2174 90.5,58.5C 89.0159,56.7182 88.0159,54.7182 87.5,52.5C 87.3428,44.155 91.5095,39.8216 100,39.5C 105.279,39.3482 109.446,41.3482 112.5,45.5C 111.467,46.452 110.3,46.452 109,45.5C 107.699,45.6387 106.866,46.3054 106.5,47.5 Z"/></g>
<g><path style="opacity:1" fill="#171717" d="M 50.5,30.5 C 54.5796,31.2442 57.9129,33.2442 60.5,36.5C 58.9018,36.6097 57.2352,36.943 55.5,37.5C 54.7189,38.7287 54.2189,40.062 54,41.5C 52.3262,37.9793 51.1596,34.3127 50.5,30.5 Z"/></g>
<g><path style="opacity:1" fill="#dddbd2" d="M 52.5,32.5 C 54.7279,33.3218 55.3946,34.6552 54.5,36.5C 53.2949,35.4231 52.6282,34.0898 52.5,32.5 Z"/></g>
<g><path style="opacity:1" fill="#191817" d="M 146.5,27.5 C 148.22,29.6581 149.053,32.3248 149,35.5C 149.956,34.4214 150.789,33.2547 151.5,32C 152.167,31.3333 152.833,31.3333 153.5,32C 151.85,34.8131 149.85,37.3131 147.5,39.5C 146.682,36.8929 146.182,34.2263 146,31.5C 144.907,33.3492 143.574,35.0158 142,36.5C 141.833,36 141.667,35.5 141.5,35C 143.295,32.5742 144.962,30.0742 146.5,27.5 Z"/></g>
<g><path style="opacity:1" fill="#191918" d="M 138.5,22.5 C 140.252,22.4176 141.252,23.2509 141.5,25C 140.972,27.8623 140.305,30.6956 139.5,33.5C 138.833,32.5 138.167,31.5 137.5,30.5C 135.412,29.821 133.412,29.4877 131.5,29.5C 134.188,27.4789 136.521,25.1456 138.5,22.5 Z"/></g>
<g><path style="opacity:1" fill="#c7c7c0" d="M 137.5,25.5 C 139.048,25.8212 139.715,26.8212 139.5,28.5C 136.752,28.5983 136.086,27.5983 137.5,25.5 Z"/></g>
<g><path style="opacity:1" fill="#1f201f" d="M 73.5,18.5 C 74.3764,18.3691 75.0431,18.7025 75.5,19.5C 74.675,20.3857 73.675,20.719 72.5,20.5C 72.281,21.675 72.6143,22.675 73.5,23.5C 74.6086,22.4104 75.6086,22.4104 76.5,23.5C 75.675,24.3857 74.675,24.719 73.5,24.5C 73.5,25.5 73.5,26.5 73.5,27.5C 80.0472,26.7012 80.0472,27.7012 73.5,30.5C 72.1689,27.5098 70.8356,24.5098 69.5,21.5C 70.9014,20.4793 72.2347,19.4793 73.5,18.5 Z"/></g>
<g><path style="opacity:1" fill="#242423" d="M 63.5,23.5 C 65.2371,26.008 66.0704,29.008 66,32.5C 66.9653,30.7397 68.132,30.4063 69.5,31.5C 67.9706,33.1881 66.1373,34.5214 64,35.5C 63.6667,32.1667 63.3333,28.8333 63,25.5C 62.0347,27.2603 60.868,27.5937 59.5,26.5C 60.9014,25.4793 62.2347,24.4793 63.5,23.5 Z"/></g>
<g><path style="opacity:1" fill="#212120" d="M 124.5,17.5 C 127.278,17.0217 129.278,18.0217 130.5,20.5C 130.167,20.8333 129.833,21.1667 129.5,21.5C 125.218,18.9219 123.385,20.2552 124,25.5C 125.205,26.0712 126.372,26.7379 127.5,27.5C 123.71,29.0604 121.71,27.7271 121.5,23.5C 121.628,21.0452 122.628,19.0452 124.5,17.5 Z"/></g>
<g><path style="opacity:1" fill="#1c1c1b" d="M 113.5,14.5 C 114.85,15.4831 115.85,16.8164 116.5,18.5C 117.719,17.7366 118.719,16.7366 119.5,15.5C 119.833,15.8333 120.167,16.1667 120.5,16.5C 118.394,19.2685 116.727,22.2685 115.5,25.5C 114.588,21.8667 113.921,18.2001 113.5,14.5 Z"/></g>
<g><path style="opacity:1" fill="#2a2a29" d="M 105.5,14.5 C 106.5,14.5 107.5,14.5 108.5,14.5C 108.927,17.3761 109.594,20.2094 110.5,23C 110.167,23.5 109.833,24 109.5,24.5C 107.167,21.8333 104.833,21.8333 102.5,24.5C 102.167,24.1667 101.833,23.8333 101.5,23.5C 103.122,20.5918 104.456,17.5918 105.5,14.5 Z"/></g>
<g><path style="opacity:1" fill="#21201f" d="M 80.5,16.5 C 84.7244,16.0525 86.391,17.7191 85.5,21.5C 87.8873,27.5984 87.0539,27.9317 83,22.5C 82.5,23 82,23.5 81.5,24C 82.731,25.1827 82.731,26.3493 81.5,27.5C 80.3466,24.5539 79.3466,21.5539 78.5,18.5C 79.2427,17.8182 79.9094,17.1515 80.5,16.5 Z"/></g>
<g><path style="opacity:1" fill="#f5f4e9" d="M 81.5,18.5 C 83.4646,18.9483 83.7979,19.9483 82.5,21.5C 81.6143,20.675 81.281,19.675 81.5,18.5 Z"/></g>
<g><path style="opacity:1" fill="#1b1b1a" d="M 90.5,14.5 C 92.5273,14.3379 94.5273,14.5045 96.5,15C 100.419,21.3337 98.7524,24.5004 91.5,24.5C 91.1667,21.1667 90.8333,17.8333 90.5,14.5 Z"/></g>
<g><path style="opacity:1" fill="#ddddd8" d="M 93.5,19.5 C 97.31,20.7542 97.31,21.7542 93.5,22.5C 93.5,21.5 93.5,20.5 93.5,19.5 Z"/></g>
<g><path style="opacity:1" fill="#c4c3bf" d="M 92.5,15.5 C 93.5,15.5 94.5,15.5 95.5,15.5C 95.5,16.5 95.5,17.5 95.5,18.5C 94.5,18.5 93.5,18.5 92.5,18.5C 92.5,17.5 92.5,16.5 92.5,15.5 Z"/></g>
<g><path style="opacity:1" fill="#191918" d="M 124.5,174.5 C 126.39,174.297 127.89,174.963 129,176.5C 129.615,178.116 130.615,179.449 132,180.5C 132.667,181.5 132.667,182.5 132,183.5C 128.868,180.597 126.702,181.264 125.5,185.5C 124.511,181.893 124.177,178.226 124.5,174.5 Z"/></g>
<g><path style="opacity:1" fill="#1d1d1c" d="M 67.5,172.5 C 68.4972,172.47 69.1639,172.97 69.5,174C 68.6243,176.836 67.291,179.336 65.5,181.5C 65.1667,181.167 64.8333,180.833 64.5,180.5C 65.9,177.965 66.9,175.298 67.5,172.5 Z"/></g>
<g><path style="opacity:1" fill="#96958a" d="M 113.5,176.5 C 113.5,177.5 113.5,178.5 113.5,179.5C 111.367,173.989 110.033,174.322 109.5,180.5C 108.833,179.5 108.167,178.5 107.5,177.5C 107.5,176.5 107.5,175.5 107.5,174.5C 109.262,174.643 110.929,174.309 112.5,173.5C 113.386,174.325 113.719,175.325 113.5,176.5 Z"/></g>
<g><path style="opacity:1" fill="#e5e4db" d="M 126.5,177.5 C 128.332,178.14 128.665,179.14 127.5,180.5C 126.614,179.675 126.281,178.675 126.5,177.5 Z"/></g>
<g><path style="opacity:1" fill="#1e1e1d" d="M 75.5,176.5 C 78.5959,175.907 80.9292,176.907 82.5,179.5C 82.0233,180.478 81.3567,181.311 80.5,182C 81.8333,183.333 81.8333,184.667 80.5,186C 78.5273,186.495 76.5273,186.662 74.5,186.5C 74.6159,183.14 74.9492,179.807 75.5,176.5 Z"/></g>
<g><path style="opacity:1" fill="#fefffe" d="M 77.5,178.5 C 79.337,178.639 79.6704,179.306 78.5,180.5C 77.7025,180.043 77.3691,179.376 77.5,178.5 Z"/></g>
<g><path style="opacity:1" fill="#181818" d="M 113.5,176.5 C 114.765,177.514 115.431,179.014 115.5,181C 115.596,187.268 113.096,188.768 108,185.5C 107.713,183.109 107.213,180.776 106.5,178.5C 106.624,177.893 106.957,177.56 107.5,177.5C 108.167,178.5 108.833,179.5 109.5,180.5C 109.5,182.167 109.5,183.833 109.5,185.5C 110.833,185.5 112.167,185.5 113.5,185.5C 113.5,183.5 113.5,181.5 113.5,179.5C 113.5,178.5 113.5,177.5 113.5,176.5 Z"/></g>
<g><path style="opacity:1" fill="#e4e4df" d="M 76.5,182.5 C 77.5,182.5 78.5,182.5 79.5,182.5C 79.5,183.5 79.5,184.5 79.5,185.5C 78.5,185.5 77.5,185.5 76.5,185.5C 76.5,184.5 76.5,183.5 76.5,182.5 Z"/></g>
<g><path style="opacity:1" fill="#1b1b1a" d="M 88.5,178.5 C 89.5,178.5 90.5,178.5 91.5,178.5C 91.7233,181.784 92.3899,184.951 93.5,188C 93,188.167 92.5,188.333 92,188.5C 90.9079,187.704 89.7412,187.037 88.5,186.5C 87.0144,187.309 85.6811,187.309 84.5,186.5C 85.8466,183.807 87.1799,181.14 88.5,178.5 Z"/></g>
<g><path style="opacity:1" fill="#faf9e9" d="M 113.5,179.5 C 113.5,181.5 113.5,183.5 113.5,185.5C 112.167,185.5 110.833,185.5 109.5,185.5C 109.5,183.833 109.5,182.167 109.5,180.5C 110.033,174.322 111.367,173.989 113.5,179.5 Z"/></g>
<g><path style="opacity:1" fill="#a7a69d" d="M 88.5,180.5 C 90.1765,181.183 90.8432,182.517 90.5,184.5C 89.325,184.719 88.325,184.386 87.5,183.5C 88.1272,182.583 88.4606,181.583 88.5,180.5 Z"/></g>
<g><path style="opacity:1" fill="#32322f" d="M 101.5,177.5 C 102.376,177.369 103.043,177.702 103.5,178.5C 102.289,179.874 101.289,181.374 100.5,183C 101.289,184.626 102.289,186.126 103.5,187.5C 102.998,188.521 102.332,188.688 101.5,188C 99.3323,183.301 98.3323,183.468 98.5,188.5C 97.5,188.5 96.5,188.5 95.5,188.5C 95.1796,185.102 95.513,181.768 96.5,178.5C 97.2811,179.729 97.7811,181.062 98,182.5C 99.1764,180.804 100.343,179.138 101.5,177.5 Z"/></g>
</svg>
