<?xml version="1.0" encoding="utf-8"?>
<svg viewBox="0 0 70 70" fill="none" xmlns="http://www.w3.org/2000/svg">
  <defs>
    <clipPath id="clip0">
      <rect width="70" height="70" rx="10" fill="white"/>
    </clipPath>
  </defs>
  <g clip-path="url(#clip0)">
    <rect width="70" height="70" rx="10" fill="#651B10"/>
    <path d="M94.8573 -15.5184C94.8573 -15.5184 68.4787 -2.95593 73.1606 28.1212C78.4135 62.967 47.9525 77.9223 27.1408 69.308C6.32912 60.6639 7.78508 28.6895 -31.7828 27.7024C-72.2071 26.7154 -80.7145 -13.5443 -80.7145 -13.5443" stroke="white" stroke-opacity="0.2" stroke-width="2" stroke-miterlimit="10"/>
    <path d="M64.3677 -24.8806C64.3677 -24.8806 52.9484 1.68004 57.0308 28.0911C61.1418 54.5021 42.671 57.6128 35.3341 54.5021C20.0894 48.1013 17.1489 13.8237 -7.4597 11.6103C-25.959 9.93536 -50.853 23.1857 -64.0423 -6.87439" stroke="white" stroke-opacity="0.2" stroke-width="2" stroke-miterlimit="10"/>
    <path d="M52.0634 -13.0358C52.0634 -13.0358 56.1743 14.0931 37.9891 9.24758C17.1489 3.68422 17.4629 -9.35679 -8.91565 2.96636C-18.308 7.36322 -56.1059 8.64937 -48.4835 -15.5184" stroke="white" stroke-opacity="0.2" stroke-width="2" stroke-miterlimit="10"/>
    <path d="M38.8741 45.1403C43.2415 45.1403 46.782 39.6766 46.782 32.9368C46.782 26.197 43.2415 20.7333 38.8741 20.7333C34.5067 20.7333 30.9663 26.197 30.9663 32.9368C30.9663 39.6766 34.5067 45.1403 38.8741 45.1403Z" stroke="white" stroke-opacity="0.2" stroke-width="2" stroke-miterlimit="10"/>
    <path d="M 59.057 32.861 L 37.226 11.904 C 35.969 10.699 33.931 10.699 32.673 11.904 L 28.14 16.259 L 33.89 21.779 C 35.226 21.344 36.759 21.635 37.824 22.659 C 38.895 23.685 39.195 25.168 38.732 26.456 L 44.275 31.779 C 45.616 31.333 47.163 31.621 48.234 32.651 C 49.73 34.088 49.73 36.416 48.234 37.853 C 46.736 39.291 44.312 39.291 42.813 37.853 C 41.688 36.771 41.409 35.184 41.98 33.851 L 36.811 28.891 L 36.811 41.949 C 37.175 42.123 37.52 42.355 37.824 42.645 C 39.32 44.083 39.32 46.408 37.824 47.848 C 36.327 49.283 33.901 49.283 32.405 47.848 C 30.909 46.408 30.909 44.083 32.405 42.645 C 32.775 42.288 33.204 42.021 33.661 41.843 L 33.661 28.661 C 33.204 28.48 32.776 28.216 32.405 27.859 C 31.272 26.771 30.999 25.173 31.581 23.837 L 25.913 18.395 L 10.943 32.765 C 9.686 33.973 9.686 35.931 10.943 37.139 L 32.774 58.096 C 34.031 59.301 36.07 59.301 37.329 58.096 L 59.057 37.235 C 60.314 36.027 60.314 34.069 59.057 32.861 Z" style="fill: rgb(226, 50, 55);"/>
  </g>
</svg>