<?xml version="1.0" encoding="utf-8"?>
<svg viewBox="0 0 70 70" fill="none" xmlns="http://www.w3.org/2000/svg">
  <defs>
    <clipPath id="clip0">
      <rect width="70" height="70" rx="10" fill="white"/>
    </clipPath>
    <clipPath id="clip-1">
      <rect width="70" height="70" rx="10" fill="white"/>
    </clipPath>
  </defs>
  <g clip-path="url(#clip0)">
    <rect width="70" height="70" rx="10" fill="black"/>
    <path d="M94.8572 -15.5184C94.8572 -15.5184 68.4786 -2.95593 73.1606 28.1212C78.4134 62.967 47.9524 77.9223 27.1408 69.308C6.32909 60.6639 7.78505 28.6895 -31.7828 27.7024C-72.2072 26.7154 -80.7145 -13.5443 -80.7145 -13.5443" stroke="white" stroke-opacity="0.2" stroke-width="2" stroke-miterlimit="10"/>
    <path d="M64.3677 -24.8806C64.3677 -24.8806 52.9484 1.68004 57.0308 28.0911C61.1417 54.5021 42.671 57.6128 35.3341 54.5021C20.0894 48.1013 17.1489 13.8237 -7.45971 11.6103C-25.959 9.93536 -50.8531 23.1857 -64.0424 -6.87439" stroke="white" stroke-opacity="0.2" stroke-width="2" stroke-miterlimit="10"/>
    <path d="M52.0634 -13.0358C52.0634 -13.0358 56.1743 14.0931 37.9891 9.24758C17.1488 3.68422 17.4629 -9.35679 -8.9157 2.96636C-18.3081 7.36322 -56.106 8.64937 -48.4836 -15.5184" stroke="white" stroke-opacity="0.2" stroke-width="2" stroke-miterlimit="10"/>
    <path d="M38.8741 45.1403C43.2415 45.1403 46.782 39.6766 46.782 32.9368C46.782 26.197 43.2415 20.7333 38.8741 20.7333C34.5067 20.7333 30.9662 26.197 30.9662 32.9368C30.9662 39.6766 34.5067 45.1403 38.8741 45.1403Z" stroke="white" stroke-opacity="0.2" stroke-width="2" stroke-miterlimit="10"/>
    <path d="M 35 11 C 21.851 11 11.203 21.742 11.203 34.999 C 11.203 48.258 21.851 59 35 59 C 48.14 59 58.797 48.258 58.797 34.999 C 58.797 21.742 48.141 11 34.993 11 L 35 11 Z M 35 12.055 C 41.07 12.055 46.789 14.447 51.086 18.772 C 55.374 23.085 57.765 28.921 57.75 34.999 C 57.75 41.124 55.384 46.89 51.086 51.226 C 46.844 55.531 41.046 57.953 35 57.945 C 28.955 57.953 23.157 55.531 18.914 51.226 C 14.626 46.913 12.227 41.079 12.242 34.999 C 12.242 28.875 14.616 23.11 18.909 18.772 C 23.149 14.46 28.955 12.039 35 12.055 Z M 33.806 20.498 C 29.93 21.539 26.343 23.531 21.562 29.015 C 16.783 34.498 17.689 39.03 17.689 39.03 C 17.689 39.03 19.008 35.914 22.181 32.631 C 23.689 31.077 24.806 30.554 25.58 30.554 C 26.268 30.515 26.845 31.071 26.845 31.756 L 26.845 42.889 C 26.845 43.991 26.134 44.234 25.48 44.217 C 24.924 44.21 24.409 44.014 24.409 44.014 C 27.667 48.747 35.463 49.413 35.463 49.413 L 38.886 45.755 L 38.964 45.826 L 42.096 48.5 C 47.83 45.092 50.597 38.779 50.597 38.779 C 48.036 41.482 46.409 42.115 45.441 42.115 C 44.581 42.107 44.245 41.607 44.245 41.607 C 44.197 41.373 44.118 37.982 44.09 34.593 C 44.057 31.084 44.09 27.568 44.26 27.56 C 45.254 25.699 48.41 21.95 48.41 21.95 C 42.512 23.114 39.301 26.98 39.301 26.98 C 38.348 26.23 36.411 26.356 36.411 26.356 C 37.316 26.854 38.222 28.308 38.222 29.511 L 38.222 41.356 C 38.222 41.356 36.245 43.096 34.723 43.096 C 33.815 43.096 33.262 42.604 32.957 42.197 C 32.839 42.041 32.739 41.869 32.661 41.682 L 32.661 27.056 C 32.45 27.214 32.191 27.299 31.933 27.308 C 31.605 27.308 31.268 27.144 31.042 26.667 C 30.871 26.305 30.761 25.769 30.761 24.979 C 30.761 22.284 33.808 20.494 33.808 20.494 L 33.806 20.498 Z" fill="white"/>
    <g clip-path="url(#clip-1)" transform="matrix(1, 0, 0, 1, 0.816666, 0.777779)">
      <path d="M94.8572 -15.5184C94.8572 -15.5184 68.4786 -2.95593 73.1606 28.1212C78.4134 62.967 47.9524 77.9223 27.1408 69.308C6.32909 60.6639 7.78505 28.6895 -31.7828 27.7024C-72.2072 26.7154 -80.7145 -13.5443 -80.7145 -13.5443" stroke="white" stroke-opacity="0.2" stroke-width="2" stroke-miterlimit="10"/>
      <path d="M64.3677 -24.8806C64.3677 -24.8806 52.9484 1.68004 57.0308 28.0911C61.1417 54.5021 42.671 57.6128 35.3341 54.5021C20.0894 48.1013 17.1489 13.8237 -7.45971 11.6103C-25.959 9.93536 -50.8531 23.1857 -64.0424 -6.87439" stroke="white" stroke-opacity="0.2" stroke-width="2" stroke-miterlimit="10"/>
      <path d="M52.0634 -13.0358C52.0634 -13.0358 56.1743 14.0931 37.9891 9.24758C17.1488 3.68422 17.4629 -9.35679 -8.9157 2.96636C-18.3081 7.36322 -56.106 8.64937 -48.4836 -15.5184" stroke="white" stroke-opacity="0.2" stroke-width="2" stroke-miterlimit="10"/>
      <path d="M38.8741 45.1403C43.2415 45.1403 46.782 39.6766 46.782 32.9368C46.782 26.197 43.2415 20.7333 38.8741 20.7333C34.5067 20.7333 30.9662 26.197 30.9662 32.9368C30.9662 39.6766 34.5067 45.1403 38.8741 45.1403Z" stroke="white" stroke-opacity="0.2" stroke-width="2" stroke-miterlimit="10"/>
    </g>
  </g>
</svg>