<?xml version="1.0" encoding="utf-8"?>
<svg viewBox="0 0 70 70" fill="none" xmlns="http://www.w3.org/2000/svg">
  <defs>
    <clipPath id="clip0">
      <rect width="70" height="70" rx="10" fill="white"/>
    </clipPath>
  </defs>
  <g clip-path="url(#clip0)">
    <rect width="70" height="70" rx="10" fill="black"/>
    <path d="M94.8573 -15.5184C94.8573 -15.5184 68.4787 -2.95593 73.1606 28.1212C78.4135 62.967 47.9525 77.9223 27.1408 69.308C6.32912 60.6639 7.78508 28.6895 -31.7828 27.7024C-72.2071 26.7154 -80.7145 -13.5443 -80.7145 -13.5443" stroke="white" stroke-opacity="0.15" stroke-width="2" stroke-miterlimit="10"/>
    <path d="M64.3677 -24.8806C64.3677 -24.8806 52.9484 1.68004 57.0308 28.0911C61.1417 54.5021 42.671 57.6128 35.3341 54.5021C20.0894 48.1013 17.1489 13.8237 -7.45971 11.6103C-25.959 9.93536 -50.8531 23.1857 -64.0424 -6.87439" stroke="white" stroke-opacity="0.15" stroke-width="2" stroke-miterlimit="10"/>
    <path d="M52.0634 -13.0358C52.0634 -13.0358 56.1744 14.0931 37.9891 9.24758C17.1489 3.68422 17.4629 -9.35679 -8.91564 2.96636C-18.308 7.36322 -56.1059 8.64937 -48.4835 -15.5184" stroke="white" stroke-opacity="0.15" stroke-width="2" stroke-miterlimit="10"/>
    <path d="M38.8742 45.1403C43.2416 45.1403 46.782 39.6766 46.782 32.9368C46.782 26.197 43.2416 20.7333 38.8742 20.7333C34.5068 20.7333 30.9663 26.197 30.9663 32.9368C30.9663 39.6766 34.5068 45.1403 38.8742 45.1403Z" stroke="white" stroke-opacity="0.15" stroke-width="2" stroke-miterlimit="10"/>
    <svg xmlns="http://www.w3.org/2000/svg" version="1.1" width="318px" height="240px" style="shape-rendering:geometricPrecision; text-rendering:geometricPrecision; image-rendering:optimizeQuality; fill-rule:evenodd; clip-rule:evenodd" transform="matrix(0.22738589346408844, 0, 0, 1, 38.315582275390625, 0)">
      <g transform="matrix(0.227386, 0, 0, 0.217195, -1.276569, 8.936598)">
        <path style="opacity: 0.82; fill: rgb(255, 255, 255);" d="M 50.5,9.5 C 123.317,29.5385 195.984,50.2051 268.5,71.5C 269.614,72.723 269.781,74.0563 269,75.5C 216.167,126.333 163.333,177.167 110.5,228C 108.933,229.076 107.266,229.909 105.5,230.5C 104.353,230.182 103.519,229.516 103,228.5C 85.176,157.537 67.5093,86.5373 50,15.5C 49.3224,13.4024 49.4891,11.4024 50.5,9.5 Z M 56.5,16.5 C 70.8558,20.6735 85.1892,25.0069 99.5,29.5C 88.8743,39.6251 78.3743,49.9584 68,60.5C 63.8531,45.9124 60.0198,31.2457 56.5,16.5 Z M 110.5,33.5 C 110.735,32.9033 111.235,32.5699 112,32.5C 125.673,36.2903 139.173,40.4569 152.5,45C 142.637,55.1969 132.471,65.0302 122,74.5C 117.998,60.817 114.164,47.1503 110.5,33.5 Z M 103.5,34.5 C 104.586,34.62 105.253,35.2867 105.5,36.5C 108.449,49.796 111.782,62.9627 115.5,76C 101.266,72.9403 87.2656,68.9403 73.5,64C 83.3951,53.9372 93.3951,44.1039 103.5,34.5 Z M 163.5,48.5 C 177.741,51.482 192.074,55.3153 206.5,60C 195.696,69.8032 185.196,79.9699 175,90.5C 171.143,76.3941 167.309,62.3941 163.5,48.5 Z M 156.5,49.5 C 157.649,49.7911 158.316,50.6244 158.5,52C 161.528,65.1111 164.861,78.1111 168.5,91C 154.318,88.1104 140.318,84.277 126.5,79.5C 136.827,69.8394 146.827,59.8394 156.5,49.5 Z M 217.5,63.5 C 231.68,66.8784 245.68,70.8784 259.5,75.5C 248.946,85.7102 238.446,96.0435 228,106.5C 224.34,92.1944 220.84,77.861 217.5,63.5 Z M 210.5,64.5 C 214.774,78.5984 218.274,92.9317 221,107.5C 206.93,103.106 192.763,98.9396 178.5,95C 189.365,84.9666 200.032,74.7999 210.5,64.5 Z M 70.5,70.5 C 84.9149,74.3602 99.2482,78.5269 113.5,83C 102.667,93.1667 91.8333,103.333 81,113.5C 77.0249,99.2667 73.5249,84.9334 70.5,70.5 Z M 124.5,85.5 C 138.465,89.6596 152.465,93.8262 166.5,98C 155.696,107.803 145.196,117.97 135,128.5C 130.714,114.357 127.214,100.023 124.5,85.5 Z M 117.5,87.5 C 121.611,101.608 125.278,115.941 128.5,130.5C 113.924,127.029 99.5911,122.862 85.5,118C 96.365,107.967 107.032,97.7999 117.5,87.5 Z M 177.5,101.5 C 191.668,104.889 205.668,108.889 219.5,113.5C 209.485,124.349 198.985,134.682 188,144.5C 184.025,130.267 180.525,115.933 177.5,101.5 Z M 170.5,102.5 C 174.931,116.892 178.431,131.559 181,146.5C 167.098,142.399 153.265,138.066 139.5,133.5C 149.548,122.785 159.881,112.452 170.5,102.5 Z M 83.5,124.5 C 97.5842,128.355 111.584,132.521 125.5,137C 115.304,147.53 104.804,157.697 94,167.5C 90.6528,153.112 87.1528,138.778 83.5,124.5 Z M 130.5,140.5 C 134.686,154.07 138.353,167.903 141.5,182C 141.167,182.5 140.833,183 140.5,183.5C 126.694,179.619 113.027,175.452 99.5,171C 110.339,161.328 120.672,151.161 130.5,140.5 Z M 137.5,140.5 C 151.665,143.875 165.665,147.875 179.5,152.5C 169.178,162.655 158.678,172.655 148,182.5C 144.495,168.482 140.995,154.482 137.5,140.5 Z M 96.5,177.5 C 111.305,181.157 125.972,185.324 140.5,190C 129.363,200.137 118.529,210.637 108,221.5C 103.853,206.912 100.02,192.246 96.5,177.5 Z"/>
      </g>
    </svg>
  </g>
</svg>